<?xml version="1.0" standalone="no"?>
<!DOCTYPE svg PUBLIC "-//W3C//DTD SVG 20010904//EN"
 "http://www.w3.org/TR/2001/REC-SVG-20010904/DTD/svg10.dtd">
<svg version="1.0" xmlns="http://www.w3.org/2000/svg"
 width="1024.000000pt" height="1024.000000pt" viewBox="0 0 1024.000000 1024.000000"
 preserveAspectRatio="xMidYMid meet">

<g transform="translate(0.000000,1024.000000) scale(0.100000,-0.100000)"
fill="#000000" stroke="none">
<path d="M4855 8880 c-690 -40 -1337 -264 -1899 -658 -244 -171 -494 -395
-684 -612 -379 -433 -684 -1025 -818 -1590 -142 -596 -148 -1120 -18 -1702
226 -1019 873 -1923 1749 -2446 746 -444 1620 -616 2498 -491 386 55 746 169
1122 354 666 329 1215 851 1590 1510 424 745 593 1584 479 2375 -98 681 -365
1312 -785 1855 -116 150 -405 440 -564 567 -595 474 -1256 748 -1985 822 -186
19 -506 27 -685 16z m1101 -540 c814 -180 1636 -826 2066 -1624 119 -220 225
-504 284 -755 20 -90 11 -86 -15 6 -59 208 -170 494 -254 658 -254 495 -657
942 -1137 1262 -287 192 -595 333 -935 428 -267 75 -269 82 -9 25z m-151 -455
c336 -64 758 -273 1091 -539 512 -410 886 -1017 984 -1595 19 -114 20 -158 2
-85 -122 484 -214 707 -423 1019 -253 378 -600 694 -1014 923 -209 115 -517
232 -742 282 -82 18 -84 19 -28 14 33 -3 92 -11 130 -19z m1 -515 c491 -124
993 -496 1308 -970 135 -202 252 -478 297 -699 24 -120 21 -154 -6 -55 -35
131 -116 359 -164 459 -300 631 -862 1092 -1556 1276 -97 26 -103 29 -50 23
33 -3 110 -18 171 -34z m-346 -813 c498 -117 892 -473 1058 -957 65 -190 77
-267 77 -490 0 -153 -4 -214 -19 -280 -66 -301 -195 -541 -405 -750 -134 -134
-254 -219 -415 -296 -294 -139 -637 -177 -966 -105 -587 129 -1037 614 -1120
1211 -16 113 -13 380 5 485 104 603 563 1070 1170 1191 108 21 140 23 315 20
162 -4 213 -9 300 -29z m-2496 -2302 c199 -476 506 -857 886 -1099 41 -26 134
-76 205 -111 181 -88 324 -136 595 -199 l65 -16 -75 6 c-289 22 -647 169 -942
386 -104 77 -288 255 -383 373 -218 270 -399 629 -471 932 -37 160 -28 152 30
-22 29 -88 70 -200 90 -250z m-579 210 c95 -326 248 -675 391 -890 370 -555
859 -931 1449 -1111 133 -41 253 -71 359 -90 43 -7 81 -16 84 -19 8 -7 -2 -7
-124 9 -806 107 -1561 680 -1954 1481 -123 252 -192 448 -240 686 -31 158 -27
150 35 -66z m-380 -364 c146 -447 401 -885 713 -1221 443 -479 1025 -818 1637
-954 148 -33 156 -36 80 -30 -359 29 -900 261 -1293 557 -281 210 -490 425
-692 708 -262 366 -452 782 -534 1169 -43 203 -39 234 8 55 24 -93 60 -221 81
-284z"/>
<path d="M5040 5411 c-265 -86 -301 -429 -58 -550 51 -26 73 -31 133 -31 103
0 159 22 227 90 45 45 60 69 74 115 41 142 -17 279 -147 350 -43 23 -68 29
-129 32 -41 1 -86 -1 -100 -6z"/>
</g>
</svg>
